<svg 
  xmlns="http://www.w3.org/2000/svg"
  xmlns:xlink="http://www.w3.org/1999/xlink"
  viewBox="0 0 330 87"
  >
  <defs>
    <g id="segment">
      <g transform="translate(-5,-48.2) scale(.11)">
        <path d="M876.955 426.046 C876.955 426.046 857.643 411.471 821.976 404.024 775.613 394.343 714.232 388.336 630.975 386.025 559.809 384.05 539.981 351.019 539.981 351.019 539.981 351.019 555.466 340.318 595.975 336.025 630.483 332.369 685.955 340.046 685.955 340.046 685.955 340.046 658.792 301.371 543.983 329.017 541.314 329.66 528.95 333.905 519.983 331.017 512.031 328.456 508.628 319.277 502.982 312.018 460.166 256.966 522.409 258.761 511.964 258.036 415.572 251.354 383.622 250.898 338.962 282.038 310.175 302.11 278.771 334.922 263.96 362.04 250.627 386.527 258.955 412.046 258.955 412.046 258.955 412.046 283.874 346.335 346.955 301.046 368.455 285.609 393.754 276.237 422.967 277.033 455.526 277.92 472.204 286.559 499.955 340.046 507.363 354.325 515.405 363.988 527.98 374.02 550.337 391.855 577.64 403.287 605.997 407.003 651.679 412.99 695.203 411.804 737.997 416.003 807.292 422.802 843.979 439.002 843.979 439.002 843.979 439.002 885.977 439.002 885.977 439.002 885.977 439.002 876.955 426.046 876.955 426.046 Z" />
        <path d="M876.945 451.331 C876.945 451.331 857.633 465.905 821.967 473.353 775.604 483.033 714.222 489.041 630.966 491.351 559.8 493.326 539.971 526.357 539.971 526.357 539.971 526.357 555.456 537.059 595.965 541.351 630.473 545.008 685.945 537.331 685.945 537.331 685.945 537.331 658.783 576.005 543.973 548.359 541.305 547.716 528.941 543.471 519.974 546.359 512.022 548.921 508.619 558.1 502.973 565.359 460.156 620.406 522.4 618.61 511.954 619.335 415.563 626.014 383.612 626.47 338.953 595.338 310.166 575.266 278.762 542.454 263.95 515.336 250.627 490.85 258.946 465.331 258.946 465.331 258.946 465.331 283.865 531.041 346.945 576.331 368.446 591.767 393.745 601.139 422.958 600.343 455.517 599.456 472.195 590.817 499.945 537.331 507.354 523.052 515.396 513.389 527.971 503.357 550.327 485.522 577.631 474.09 605.988 470.373 651.669 464.386 695.193 465.573 737.988 461.374 807.283 454.574 843.969 438.374 843.969 438.374 843.969 438.374 885.967 438.374 885.967 438.374 885.967 438.374 876.945 451.331 876.945 451.331 Z" />
        <path d="M419.988 348.012 C411.256 351.571 423.746 327.468 431.996 324.004 442.007 319.802 449.747 326.858 462.995 334.005 482.281 344.41 477.124 387.572 463.994 400.006 437.395 425.195 389.771 410.134 367.992 395.008 336.929 373.432 332.998 348.012 332.998 348.012 332.998 348.012 348.141 362.543 376.997 381.003 389.345 388.902 431.691 401.341 444.988 384.012 463.464 359.933 435.458 341.706 419.988 348.012 Z" />
        <path d="M419.988 525.226 C411.256 521.667 423.746 545.77 431.996 549.234 442.007 553.436 449.747 546.38 462.995 539.233 482.281 528.828 477.124 485.666 463.994 473.232 437.395 448.043 389.771 463.104 367.992 478.23 336.929 499.805 332.998 525.226 332.998 525.226 332.998 525.226 348.141 510.695 376.997 492.235 389.345 484.336 431.691 471.896 444.988 489.226 463.464 513.304 435.458 531.532 419.988 525.226 Z" />
        <path d="M512.998 414.002 C483.285 422.519 485.021 453.159 512.998 461.002 522.804 463.75 600.998 450.002 600.998 439.002 600.998 427.002 525.808 410.33 512.998 414.002 Z" />
        <path d="M217.997 461.003 C217.997 461.003 173.096 441.022 139.994 461.006 133.867 464.705 125.42 474.503 129.994 480.006 133.1 483.742 387.322 664.266 393.994 667.006 411.358 674.135 446.204 659.463 447.994 651.006 449.126 645.657 409.932 653.722 394.994 644.006 390.133 640.844 181.966 496.811 176.994 493.006 173.023 489.967 150.048 478.076 161 471 177.775 460.162 217.997 461.003 217.997 461.003 Z" />
        <path d="M218 413 C218 413 173.095 433.003 139.994 413.019 133.867 409.32 125.42 399.522 129.994 394.019 133.1 390.283 387.322 209.759 393.994 207.019 411.358 199.89 446.204 214.562 447.994 223.019 449.126 228.368 409.932 220.303 394.994 230.019 390.132 233.181 181.966 377.214 176.994 381.019 173.023 384.058 150.047 395.949 161 403.025 177.775 413.863 218 413 218 413 Z" />
      </g>
    </g>
  </defs>

  <g transform="translate(120.5,42) rotate(-30)" opacity="1">
    <g fill="#e6e6e6">
      <use href="#segment" />
      <use href="#segment" transform="rotate(72)" />
      <use href="#segment" transform="rotate(142)" />
      <use href="#segment" transform="rotate(216)" />
      <use href="#segment" transform="rotate(288)" />
    </g>
  </g>

  <g transform="translate(-3,21)scale(1.12)">
    <path d="M38.356,23.89c0,4.608,0,8.401,0.24,10.417c0.144,1.392,0.432,2.448,1.872,2.64c0.672,0.096,1.728,0.192,2.16,0.192
      c0.288,0,0.384,0.144,0.384,0.288c0,0.24-0.24,0.384-0.768,0.384c-2.641,0-5.665-0.144-5.905-0.144
      c-0.24,0-3.264,0.144-4.704,0.144c-0.528,0-0.768-0.096-0.768-0.384c0-0.144,0.096-0.288,0.384-0.288
      c0.432,0,1.008-0.096,1.44-0.192c0.96-0.192,1.2-1.248,1.393-2.64c0.24-2.016,0.24-5.809,0.24-10.417v-5.04
      c0-0.192-0.144-0.288-0.288-0.288H13.683c-0.144,0-0.288,0.048-0.288,0.288v5.04c0,4.608,0,8.401,0.24,10.417
      c0.144,1.392,0.432,2.448,1.873,2.64c0.672,0.096,1.728,0.192,2.16,0.192c0.288,0,0.384,0.144,0.384,0.288
      c0,0.24-0.24,0.384-0.768,0.384c-2.64,0-5.665-0.144-5.904-0.144c-0.24,0-3.265,0.144-4.705,0.144
      c-0.528,0-0.768-0.096-0.768-0.384c0-0.144,0.096-0.288,0.384-0.288c0.432,0,1.008-0.096,1.44-0.192
      c0.96-0.192,1.2-1.248,1.392-2.64c0.24-2.016,0.24-5.809,0.24-10.417v-8.449c0-7.488,0-8.833-0.096-10.369
      c-0.096-1.632-0.48-2.4-2.064-2.736C6.818,2.24,6.002,2.192,5.57,2.192c-0.192,0-0.384-0.096-0.384-0.288
      c0-0.288,0.24-0.384,0.768-0.384c2.16,0,5.185,0.144,5.425,0.144c0.24,0,3.264-0.144,4.704-0.144c0.528,0,0.768,0.096,0.768,0.384
      c0,0.192-0.192,0.288-0.384,0.288c-0.336,0-0.624,0.048-1.2,0.144c-1.296,0.24-1.68,1.056-1.776,2.736
      c-0.096,1.536-0.096,2.88-0.096,10.369v1.008c0,0.24,0.144,0.288,0.288,0.288h20.354c0.144,0,0.288-0.048,0.288-0.288v-1.008
      c0-7.488,0-8.833-0.096-10.369c-0.096-1.632-0.48-2.4-2.064-2.736c-0.384-0.096-1.2-0.144-1.632-0.144
      c-0.192,0-0.384-0.096-0.384-0.288c0-0.288,0.24-0.384,0.768-0.384c2.16,0,5.185,0.144,5.424,0.144c0.24,0,3.264-0.144,4.705-0.144
      c0.528,0,0.768,0.096,0.768,0.384c0,0.192-0.192,0.288-0.384,0.288c-0.336,0-0.624,0.048-1.2,0.144
      c-1.296,0.24-1.68,1.056-1.776,2.736c-0.096,1.536-0.096,2.88-0.096,10.369V23.89z"/>
    <path d="M52.658,15.441c0-7.488,0-8.833-0.096-10.369c-0.096-1.632-0.48-2.4-2.064-2.736c-0.384-0.096-1.2-0.144-1.632-0.144
      c-0.192,0-0.384-0.096-0.384-0.288c0-0.288,0.24-0.384,0.768-0.384c2.16,0,5.088,0.144,5.521,0.144s3.312-0.144,4.752-0.144
      c0.528,0,0.768,0.096,0.768,0.384c0,0.192-0.192,0.288-0.384,0.288c-0.336,0-0.624,0.048-1.2,0.144
      c-1.296,0.192-1.68,1.056-1.776,2.736c-0.096,1.536-0.096,2.88-0.096,10.369v6.721c0,6.913,1.536,9.889,3.6,11.857
      c2.352,2.208,4.513,2.64,7.249,2.64c2.928,0,5.809-1.392,7.537-3.456c2.208-2.736,2.784-6.816,2.784-11.761v-6
      c0-7.488,0-8.833-0.096-10.369c-0.096-1.632-0.48-2.4-2.064-2.736c-0.384-0.096-1.2-0.144-1.632-0.144
      c-0.192,0-0.384-0.096-0.384-0.288c0-0.288,0.24-0.384,0.768-0.384c2.16,0,4.801,0.144,5.088,0.144
      c0.336,0,2.592-0.144,4.033-0.144c0.528,0,0.768,0.096,0.768,0.384c0,0.192-0.192,0.288-0.384,0.288
      c-0.336,0-0.624,0.048-1.2,0.144c-1.296,0.288-1.68,1.056-1.776,2.736c-0.096,1.536-0.096,2.88-0.096,10.369v5.137
      c0,5.184-0.576,10.945-4.417,14.353c-3.456,3.072-7.056,3.552-9.889,3.552c-1.632,0-6.48-0.192-9.889-3.408
      c-2.353-2.256-4.176-5.616-4.176-12.625V15.441z"/>
    <path d="M118.083,25.57c0-3.888-0.24-4.417-2.16-4.944c-0.384-0.096-1.2-0.144-1.632-0.144c-0.192,0-0.384-0.096-0.384-0.288
      c0-0.288,0.24-0.384,0.768-0.384c2.16,0,5.185,0.144,5.424,0.144c0.24,0,3.264-0.144,4.705-0.144c0.528,0,0.768,0.096,0.768,0.384
      c0,0.192-0.192,0.288-0.384,0.288c-0.336,0-0.624,0.048-1.2,0.144c-1.296,0.24-1.68,1.056-1.776,2.736
      c-0.096,1.536-0.096,2.976-0.096,4.992v5.376c0,2.16-0.048,2.256-0.624,2.592c-3.072,1.632-7.393,2.16-10.177,2.16
      c-3.648,0-10.465-0.48-15.793-5.136c-2.928-2.544-5.712-7.681-5.712-13.681c0-7.681,3.744-13.105,8.017-15.793
      c4.32-2.688,9.073-3.024,12.769-3.024c3.024,0,6.433,0.624,7.345,0.816c1.008,0.24,2.688,0.432,3.888,0.48
      c0.48,0.048,0.576,0.24,0.576,0.432c0,0.672-0.336,2.016-0.336,6.816c0,0.768-0.096,1.008-0.432,1.008
      c-0.24,0-0.288-0.288-0.336-0.72c-0.048-0.672-0.288-2.016-1.008-3.168c-1.2-1.824-5.088-3.888-11.281-3.888
      c-3.024,0-6.625,0.288-10.273,3.168C95.953,8,93.985,12.369,93.985,17.985c0,6.769,3.408,11.665,5.088,13.297
      c3.792,3.696,8.161,5.137,12.577,5.137c1.728,0,4.225-0.288,5.473-1.008c0.624-0.336,0.96-0.864,0.96-1.68V25.57z"/>
    <path d="M133.585,37.187c-0.672-0.336-0.72-0.528-0.72-1.824c0-2.4,0.192-4.32,0.24-5.088c0.048-0.528,0.144-0.768,0.384-0.768
      c0.288,0,0.336,0.144,0.336,0.528c0,0.432,0,1.104,0.144,1.776c0.72,3.552,3.888,4.896,7.104,4.896
      c4.608,0,6.865-3.312,6.865-6.385c0-3.312-1.392-5.232-5.521-8.641l-2.16-1.776c-5.088-4.176-6.241-7.152-6.241-10.417
      c0-5.137,3.84-8.641,9.937-8.641c1.872,0,3.264,0.192,4.464,0.48c0.912,0.192,1.296,0.24,1.68,0.24c0.384,0,0.48,0.096,0.48,0.336
      c0,0.24-0.192,1.824-0.192,5.088c0,0.768-0.096,1.104-0.336,1.104c-0.288,0-0.336-0.24-0.384-0.625
      c-0.048-0.576-0.336-1.872-0.624-2.4c-0.288-0.528-1.584-2.544-6-2.544c-3.312,0-5.904,2.064-5.904,5.569
      c0,2.736,1.248,4.464,5.856,8.064l1.344,1.056c5.665,4.464,7.008,7.44,7.008,11.281c0,1.968-0.768,5.617-4.08,7.969
      c-2.064,1.44-4.657,2.016-7.249,2.016C137.761,38.483,135.553,38.147,133.585,37.187z"/>
    <path d="M170.93,2.72c0.576-1.584,0.768-1.872,1.057-1.872c0.287,0,0.479,0.24,1.055,1.729c0.721,1.824,8.258,21.649,11.186,28.946
      c1.729,4.272,3.121,5.041,4.129,5.329c0.72,0.24,1.439,0.288,1.92,0.288c0.287,0,0.48,0.048,0.48,0.288
      c0,0.288-0.433,0.384-0.961,0.384c-0.72,0-4.225,0-7.537-0.096c-0.912-0.048-1.439-0.048-1.439-0.336
      c0-0.192,0.145-0.288,0.336-0.336c0.288-0.096,0.576-0.528,0.288-1.296l-4.464-11.809c-0.097-0.192-0.192-0.288-0.433-0.288
      h-10.321c-0.24,0-0.383,0.144-0.479,0.384l-2.88,8.497c-0.433,1.2-0.672,2.352-0.672,3.216c0,0.96,1.008,1.392,1.824,1.392h0.479
      c0.336,0,0.479,0.096,0.479,0.288c0,0.288-0.287,0.384-0.72,0.384c-1.151,0-3.216-0.144-3.744-0.144s-3.169,0.144-5.425,0.144
      c-0.624,0-0.912-0.096-0.912-0.384c0-0.192,0.192-0.288,0.432-0.288c0.337,0,1.009-0.048,1.393-0.096
      c2.209-0.288,3.168-2.112,4.033-4.512L170.93,2.72z M175.922,21.922c0.24,0,0.24-0.144,0.191-0.336l-4.56-12.961
      c-0.24-0.72-0.479-0.72-0.72,0l-4.225,12.961c-0.096,0.24,0,0.336,0.144,0.336H175.922z"/>
    <path d="M198.912,31.282c0.097,3.937,0.576,5.185,1.873,5.569c0.912,0.24,1.968,0.288,2.4,0.288c0.239,0,0.383,0.096,0.383,0.288
      c0,0.288-0.287,0.384-0.863,0.384c-2.736,0-4.656-0.144-5.088-0.144c-0.433,0-2.449,0.144-4.609,0.144
      c-0.48,0-0.768-0.048-0.768-0.384c0-0.192,0.145-0.288,0.384-0.288c0.384,0,1.248-0.048,1.968-0.288
      c1.201-0.336,1.44-1.729,1.44-6.097l0.048-27.506c0-1.872,0.145-2.4,0.528-2.4s1.2,1.056,1.681,1.536
      c0.72,0.816,7.872,8.545,15.265,16.466c4.753,5.088,9.985,10.945,11.521,12.529l-0.527-24.386c-0.048-3.12-0.385-4.176-1.872-4.56
      c-0.864-0.192-1.968-0.24-2.353-0.24c-0.336,0-0.384-0.144-0.384-0.336c0-0.288,0.384-0.336,0.96-0.336
      c2.16,0,4.465,0.144,4.992,0.144c0.528,0,2.112-0.144,4.08-0.144c0.529,0,0.865,0.048,0.865,0.336c0,0.192-0.192,0.336-0.529,0.336
      c-0.239,0-0.575,0-1.151,0.144c-1.584,0.336-1.776,1.392-1.776,4.272l-0.096,28.13c0,3.168-0.096,3.408-0.432,3.408
      c-0.385,0-0.961-0.528-3.505-3.072c-0.528-0.48-7.44-7.537-12.528-13.009c-5.569-6-10.994-12.049-12.529-13.777L198.912,31.282z"/>
    <path d="M243.072,15.441c0-7.488,0-8.833-0.096-10.369c-0.096-1.632-0.48-2.4-2.064-2.736c-0.385-0.096-1.201-0.144-1.633-0.144
      c-0.191,0-0.383-0.096-0.383-0.288c0-0.288,0.24-0.384,0.768-0.384c2.16,0,5.184,0.144,5.424,0.144c0.576,0,3.602-0.144,6.48-0.144
      c4.752,0,13.537-0.432,19.25,5.472c2.4,2.497,4.656,6.48,4.656,12.193c0,6.048-2.496,10.705-5.184,13.537
      c-2.064,2.16-6.385,5.521-14.545,5.521c-2.064,0-4.609-0.144-6.674-0.288c-2.111-0.144-3.744-0.288-3.984-0.288
      c-0.096,0-0.912,0-1.92,0.048c-0.959,0-2.064,0.096-2.783,0.096c-0.529,0-0.77-0.096-0.77-0.384c0-0.144,0.096-0.288,0.385-0.288
      c0.432,0,1.008-0.096,1.439-0.192c0.961-0.192,1.201-1.248,1.393-2.64c0.24-2.016,0.24-5.809,0.24-10.417V15.441z M247.104,20.625
      c0,5.088,0.049,9.505,0.098,10.417c0.047,1.2,0.143,3.12,0.527,3.648c0.625,0.912,2.496,1.92,8.16,1.92
      c4.465,0,8.594-1.632,11.426-4.464c2.496-2.448,3.84-7.057,3.84-11.473c0-6.096-2.641-10.033-4.607-12.097
      c-4.514-4.752-9.986-5.425-15.697-5.425c-0.961,0-2.736,0.144-3.121,0.336c-0.432,0.192-0.576,0.432-0.576,0.96
      c-0.049,1.632-0.049,6.528-0.049,10.225V20.625z"/>
    <path d="M290.641,23.89c0,4.608,0,8.401,0.24,10.417c0.143,1.392,0.432,2.448,1.871,2.64c0.672,0.096,1.729,0.192,2.16,0.192
      c0.289,0,0.385,0.144,0.385,0.288c0,0.24-0.24,0.384-0.768,0.384c-2.641,0-5.666-0.144-5.906-0.144
      c-0.238,0-3.264,0.144-4.703,0.144c-0.529,0-0.768-0.096-0.768-0.384c0-0.144,0.096-0.288,0.383-0.288
      c0.432,0,1.008-0.096,1.441-0.192c0.959-0.192,1.199-1.248,1.391-2.64c0.24-2.016,0.24-5.809,0.24-10.417v-8.449
      c0-7.488,0-8.833-0.096-10.369c-0.096-1.632-0.576-2.448-1.633-2.688c-0.527-0.144-1.152-0.192-1.488-0.192
      c-0.191,0-0.383-0.096-0.383-0.288c0-0.288,0.24-0.384,0.768-0.384c1.584,0,4.609,0.144,4.848,0.144
      c0.24,0,3.266-0.144,4.705-0.144c0.527,0,0.768,0.096,0.768,0.384c0,0.192-0.191,0.288-0.383,0.288
      c-0.336,0-0.625,0.048-1.201,0.144c-1.295,0.24-1.68,1.056-1.775,2.736c-0.096,1.536-0.096,2.88-0.096,10.369V23.89z"/>
  </g>
</svg>
